<svg width="43" height="44" viewBox="0 0 43 44" fill="none" xmlns="http://www.w3.org/2000/svg">
<path d="M20.6086 7.56765C21.1256 7.05058 21.964 7.05058 22.4811 7.56765L37.8213 22.9079C38.3384 23.4249 39.1767 23.4249 39.6938 22.9079C40.2108 22.3908 40.2108 21.5524 39.6938 21.0354L24.3536 5.69516C22.8023 4.14393 20.2873 4.14393 18.7361 5.69516L3.39586 21.0354C2.87879 21.5524 2.87879 22.3908 3.39586 22.9079C3.91294 23.4249 4.75128 23.4249 5.26836 22.9079L20.6086 7.56765Z" fill="#E266F6"/>
<path d="M21.5448 10.3764L35.9488 24.7804C36.0013 24.8328 36.0548 24.8835 36.1094 24.9324V35.8742C36.1094 37.7023 34.6274 39.1843 32.7993 39.1843H26.841C26.1098 39.1843 25.517 38.5915 25.517 37.8603V29.9159C25.517 29.1847 24.9242 28.5919 24.1929 28.5919H18.8967C18.1655 28.5919 17.5727 29.1847 17.5727 29.9159V37.8603C17.5727 38.5915 16.9799 39.1843 16.2486 39.1843H10.2904C8.46222 39.1843 6.98022 37.7023 6.98022 35.8742V24.9324C7.03482 24.8835 7.08839 24.8328 7.14086 24.7804L21.5448 10.3764Z" fill="#E266F6"/>
</svg>
